<svg width="32" height="32" viewBox="0 0 32 32" fill="none" xmlns="http://www.w3.org/2000/svg">
<g id="tik-tok 1">
<g id="Group">
<g id="Group_2">
<path id="Vector" d="M11.3816 16.5873C8.84406 16.5873 6.79406 18.6373 6.83156 21.1498C6.85656 22.7623 7.74406 24.1623 9.05031 24.9436C8.60656 24.2623 8.34406 23.4561 8.33156 22.5873C8.29406 20.0748 10.3441 18.0248 12.8816 18.0248C13.3816 18.0248 13.8628 18.1061 14.3128 18.2498V13.2186C13.8441 13.1498 13.3628 13.1123 12.8816 13.1123C12.8566 13.1123 12.8378 13.1123 12.8128 13.1123V16.8123C12.3628 16.6686 11.8816 16.5873 11.3816 16.5873Z" fill="#F00044"/>
<path id="Vector_2" d="M22.3502 1.5H22.3127H21.0127C21.3877 3.38125 22.4439 5.01875 23.9189 6.13125C22.9502 4.85 22.3627 3.25 22.3502 1.5Z" fill="#F00044"/>
<path id="Vector_3" d="M29.9998 9.15605C29.5061 9.15605 29.0311 9.10605 28.5623 9.01855V12.6248C26.8623 12.6248 25.2123 12.2936 23.6623 11.6311C22.6623 11.2061 21.7311 10.6623 20.8748 10.0061L20.8998 21.1248C20.8873 23.6248 19.8998 25.9686 18.1123 27.7373C16.6561 29.1748 14.8123 30.0936 12.8123 30.3873C12.3436 30.4561 11.8623 30.4936 11.3811 30.4936C9.24355 30.4936 7.20605 29.7998 5.5498 28.5186C5.7373 28.7436 5.9373 28.9623 6.15605 29.1748C7.95605 30.9498 10.3436 31.9311 12.8873 31.9311C13.3686 31.9311 13.8498 31.8936 14.3186 31.8248C16.3186 31.5311 18.1623 30.6123 19.6186 29.1748C21.4061 27.4061 22.3936 25.0623 22.4061 22.5623L22.3123 11.4436C23.1623 12.0998 24.0936 12.6498 25.0998 13.0686C26.6561 13.7248 28.3061 14.0623 29.9998 14.0623" fill="#F00044"/>
</g>
<path id="Vector_4" d="M6.13733 15.8811C7.91858 14.1123 10.2873 13.1311 12.8123 13.1123V11.7811C12.3436 11.7123 11.8623 11.6748 11.3811 11.6748C8.83108 11.6748 6.43733 12.6561 4.63733 14.4436C2.86858 16.1998 1.85608 18.5998 1.86233 21.0936C1.86233 23.6061 2.85608 25.9623 4.64983 27.7436C4.93733 28.0248 5.23108 28.2873 5.54358 28.5248C4.13108 26.8436 3.36233 24.7436 3.35608 22.5311C3.36233 20.0373 4.36858 17.6373 6.13733 15.8811Z" fill="#08FFF9"/>
<path id="Vector_5" d="M28.5623 9.01884V7.68135H28.5498C26.8123 7.68135 25.2123 7.10635 23.9248 6.13135C25.0436 7.60635 26.6811 8.65635 28.5623 9.01884Z" fill="#08FFF9"/>
<path id="Vector_6" d="M12.6248 27.0125C13.2186 27.0437 13.7873 26.9625 14.3123 26.7937C16.1248 26.2 17.431 24.5125 17.431 22.525L17.4373 15.0875V1.5H21.0123C20.9185 1.03125 20.8685 0.55625 20.8623 0.0625H15.9373V13.6437L15.931 21.0812C15.931 23.0687 14.6248 24.7562 12.8123 25.35C12.2873 25.525 11.7186 25.6062 11.1248 25.5687C10.3686 25.525 9.6623 25.3 9.0498 24.9375C9.81855 26.125 11.1311 26.9312 12.6248 27.0125Z" fill="#08FFF9"/>
<path id="Vector_7" d="M12.8123 30.3875C14.8123 30.0938 16.6561 29.175 18.1123 27.7375C19.8998 25.9688 20.8873 23.625 20.8998 21.125L20.8748 10.0063C21.7248 10.6625 22.6561 11.2125 23.6623 11.6313C25.2186 12.2875 26.8686 12.625 28.5623 12.625V9.01875C26.6811 8.65625 25.0436 7.60625 23.9248 6.13125C22.4498 5.01875 21.3873 3.38125 21.0186 1.5H17.4373V15.0813L17.4311 22.5188C17.4311 24.5063 16.1248 26.1938 14.3123 26.7875C13.7873 26.9625 13.2186 27.0438 12.6248 27.0063C11.1248 26.925 9.81858 26.1188 9.04983 24.9375C7.74358 24.1625 6.85608 22.7563 6.83108 21.1438C6.79358 18.6313 8.84358 16.5813 11.3811 16.5813C11.8811 16.5813 12.3623 16.6625 12.8123 16.8063V13.1063C10.2873 13.125 7.91858 14.1063 6.13733 15.875C4.36858 17.6313 3.35608 20.0313 3.36233 22.5188C3.36233 24.7313 4.13108 26.8313 5.54983 28.5125C7.21233 29.7938 9.24358 30.4875 11.3811 30.4875C11.8623 30.4938 12.3436 30.4563 12.8123 30.3875Z" fill="black"/>
</g>
</g>
</svg>
